<svg xmlns="http://www.w3.org/2000/svg" width="94" height="28" fill="none" viewBox="0 0 94 28" class="sc-b3ade0d1-3 chRnsl"><g clip-path="url(#clip0_23992_7817)"><path fill="url(#paint0_linear_23992_7817)" d="M57.656.339c-4.047 0-7.682 1.76-10.183 4.554a.266.266 0 0 1-.4 0A13.627 13.627 0 0 0 36.892.34c-7.545 0-13.661 6.116-13.661 13.66 0 7.546 6.116 13.662 13.66 13.662 4.047 0 7.682-1.76 10.184-4.555a.266.266 0 0 1 .399 0 13.627 13.627 0 0 0 10.183 4.555c7.545 0 13.66-6.116 13.66-13.661S65.202.339 57.657.339Zm0 20.765c-2.186 0-4.013-1.053-5.133-2.243-.356-.38-.799-.9-1.285-1.342-.233-.21-.463-.399-.685-.568a5.63 5.63 0 0 0-3.278-1.039 5.63 5.63 0 0 0-3.28 1.039c-.222.17-.451.358-.683.568-.488.441-.93.962-1.286 1.342-1.12 1.19-2.947 2.243-5.133 2.243-.056 0-.11-.003-.166-.004-.094-.003-.189-.006-.282-.011a8.112 8.112 0 0 1-.19-.015l-.114-.01A7.104 7.104 0 0 1 29.79 14v.03-.06.03a7.106 7.106 0 0 1 6.35-7.064l.12-.011c.061-.006.123-.01.184-.014.094-.005.188-.008.284-.01.055 0 .11-.005.164-.005 2.186 0 4.012 1.053 5.133 2.243.356.38.799.9 1.285 1.342.232.21.463.399.684.568a5.631 5.631 0 0 0 3.28 1.038 5.63 5.63 0 0 0 3.278-1.038c.223-.17.452-.358.684-.568.488-.441.93-.962 1.286-1.342 1.12-1.19 2.947-2.243 5.132-2.243.055 0 .108.003.163.004.096.003.191.006.285.011.06.004.12.008.18.014l.128.01a7.104 7.104 0 0 1 6.335 6.648c0 .024.002.045.004.067l.005.194a6.82 6.82 0 0 1 0 .29c-.001.072-.001.146-.005.218 0 .015-.003.03-.003.046a7.104 7.104 0 0 1-6.336 6.663 8.041 8.041 0 0 1-.306.025c-.094.006-.191.008-.287.01-.055 0-.108.005-.163.005l.002.003Z"></path><path fill="#FCFCFD" d="m10.911 10.249 4.064 1.32c.604.245 2.79.792 4.43 2.43 1.509 1.51 2.185 3.531 2.185 5.497 0 5.98-6.172 8.165-10.656 8.165-6.83 0-9.776-3.024-10.655-3.825l4.038-5.16c.285.388 3.066 2.974 6.617 2.974 1.367 0 3.552-.546 3.552-2.186 0-1.092-1.121-1.953-3.552-2.732l-4.062-1.32c-2.795-1.109-4.954-3.051-4.954-6.877 0-2.094.805-3.688 1.172-4.26C5.362.74 9.907.34 11.48.34c2.769 0 4.814.51 6.297 1.138 1.884.796 2.864 1.78 3.267 2.14l-3.368 4.304c-3.843-2.377-6.237-2.2-7.561-1.73-.902.32-1.189 1.038-1.23 1.503-.05.572.041 1.813 2.026 2.553v.002ZM84.978.339H74.05v27.049h6.558V18.37h4.371c4.603 0 8.743-2.732 8.743-9.016S89.581.34 84.978.34Zm2.186 9.016a3.552 3.552 0 0 1-3.552 3.552h-3.005V5.803h3.005a3.552 3.552 0 0 1 3.552 3.552Z"></path></g><defs><linearGradient id="paint0_linear_23992_7817" x1="23.293" x2="71.386" y1="14.057" y2="14.057" gradientUnits="userSpaceOnUse"><stop offset="0.55" stop-color="#D1FF00"></stop><stop offset="1" stop-color="#FFF000"></stop></linearGradient><clipPath id="clip0_23992_7817"><path fill="#fff" d="M.279.339h93.443V27.66H.279z"></path></clipPath></defs></svg>